<svg xmlns="http://www.w3.org/2000/svg" width="900" height="324" viewBox="0 0 900 324" role="img" aria-labelledby="title desc">
<title id="title">activity · record plus row-local actions</title>
<desc id="desc">Structural schematic. Blue is content; green is controls; dashed slots are optional. Not a device screenshot or a pixel specification.</desc>
<rect width="900" height="100%" rx="16" fill="#f5f7fa"/>
<g font-family="Arial, Helvetica, sans-serif">
<text x="24" y="36" font-size="22" fill="#172a3a" font-weight="600">activity · record plus row-local actions</text>
<rect x="24" y="66" width="852" height="210" rx="8" fill="#fff" stroke="#bfcbd5"/>
<rect x="40" y="84" width="110" height="106" rx="8" fill="#eaf1fb" stroke="#91add0"/>
<text x="52" y="142.0" font-size="15" fill="#294766" font-weight="400">leading</text>
<rect x="166" y="84" width="368" height="42" rx="8" fill="#eaf1fb" stroke="#91add0"/>
<text x="178" y="110.0" font-size="15" fill="#294766" font-weight="400">title</text>
<rect x="166" y="138" width="368" height="52" rx="8" fill="#eaf1fb" stroke="#91add0" stroke-dasharray="5 4"/>
<text x="178" y="169.0" font-size="15" fill="#294766" font-weight="400">description</text>
<rect x="552" y="84" width="304" height="42" rx="8" fill="#eaf1fb" stroke="#91add0" stroke-dasharray="5 4"/>
<text x="564" y="110.0" font-size="15" fill="#294766" font-weight="400">primaryAmount</text>
<rect x="552" y="138" width="304" height="52" rx="8" fill="#eaf1fb" stroke="#91add0" stroke-dasharray="5 4"/>
<text x="564" y="169.0" font-size="15" fill="#294766" font-weight="400">secondaryAmount</text>
<rect x="40" y="210" width="246" height="46" rx="8" fill="#eaf1fb" stroke="#91add0" stroke-dasharray="5 4"/>
<text x="52" y="238.0" font-size="15" fill="#294766" font-weight="400">status</text>
<rect x="304" y="210" width="552" height="46" rx="8" fill="#e9f5ee" stroke="#72a38a" stroke-dasharray="5 4"/>
<text x="316" y="238.0" font-size="15" fill="#2c6245" font-weight="400">footerActions · up to 3 buttons</text>
<text x="24" y="304" font-size="13" fill="#64798b" font-weight="400">footerActions are inside this row. They are unrelated to the shared list footer.</text>
</g>
</svg>
